# Blender v2.79 (sub 0) OBJ File: 'mirror.blend'
# www.blender.org
mtllib mirror.mtl
o door_lf_ok
v 1.347643 0.025379 -0.666582
v -1.725268 0.016566 0.396707
v -1.843857 0.016277 -0.170742
v -1.766543 0.021836 -0.380173
v -1.751773 0.021668 -0.408812
v -1.212100 0.011362 -0.682703
v -0.526087 0.016182 -0.770413
v 0.698724 0.014628 -0.861702
v 1.040859 0.013628 -0.874231
v 1.663437 0.016655 -0.387333
v 1.763801 0.018010 -0.244133
v 1.825007 0.018587 0.360908
v 1.821060 0.017733 0.432508
v 1.717823 0.018952 1.196867
v 1.450776 0.016977 1.517279
v 1.133816 0.015076 1.597828
v 0.657440 0.012538 1.599628
v -0.000703 0.015141 1.454628
v -0.635486 0.015320 1.223719
v -1.379233 0.016360 0.831688
v -1.697521 0.016670 0.457567
v 1.347643 -0.009778 -0.666582
v -1.725268 -0.018591 0.396707
v -1.843857 -0.018880 -0.170742
v -1.766543 -0.013321 -0.380173
v -1.751773 -0.013489 -0.408812
v -1.212100 -0.023795 -0.682703
v -0.526087 -0.018975 -0.770413
v 0.698724 -0.020529 -0.861702
v 1.040859 -0.021530 -0.874231
v 1.663437 -0.018502 -0.387333
v 1.763801 -0.017148 -0.244133
v 1.825007 -0.016570 0.360908
v 1.821060 -0.017424 0.432508
v 1.717823 -0.016205 1.196867
v 1.450776 -0.018180 1.517279
v 1.133816 -0.020081 1.597828
v 0.657440 -0.022620 1.599628
v -0.000703 -0.020016 1.454628
v -0.635486 -0.019837 1.223719
v -1.379233 -0.018797 0.831688
v -1.697521 -0.018487 0.457567
vt 0.027747 0.276959
vt 0.178418 0.207410
vt 0.367266 0.190364
vt 0.703764 0.177817
vt 0.797629 0.177817
vt 0.879589 0.237887
vt 0.963279 0.317632
vt 0.989317 0.357890
vt 0.999918 0.524280
vt 0.998106 0.543858
vt 0.962033 0.752222
vt 0.885600 0.837284
vt 0.797938 0.856121
vt 0.667403 0.851758
vt 0.488566 0.805318
vt 0.317001 0.735594
vt 0.117221 0.620619
vt 0.033823 0.514881
vt 0.026837 0.497926
vt 0.000082 0.341258
vt 0.022951 0.285402
vt 0.983701 0.410623
vt 0.986727 0.418761
vt 0.999695 0.477458
vt 0.947575 0.624533
vt 0.937978 0.639765
vt 0.839592 0.728085
vt 0.627076 0.805851
vt 0.449431 0.844566
vt 0.268651 0.859540
vt 0.141645 0.841899
vt 0.059998 0.808995
vt 0.000305 0.713907
vt 0.000305 0.506300
vt 0.001832 0.487058
vt 0.039954 0.327872
vt 0.071884 0.293290
vt 0.166198 0.230163
vt 0.255544 0.185779
vt 0.346346 0.201499
vt 0.669763 0.269992
vt 0.849595 0.318110
vt 0.000000 0.000000
vt 0.000000 0.000000
vt 0.000000 0.000000
vt 0.000000 0.000000
vt 0.000000 0.000000
vt 0.000000 0.000000
vt 0.000000 0.000000
vt 0.000000 0.000000
vt 0.000000 0.000000
vt 0.000000 0.000000
vt 0.000000 0.000000
vt 0.000000 0.000000
vt 0.000000 0.000000
vt 0.000000 0.000000
vt 0.000000 0.000000
vt 0.000000 0.000000
vt 0.000000 0.000000
vt 0.000000 0.000000
vt 0.000000 0.000000
vt 0.000000 0.000000
vt 0.000000 0.000000
vt 0.000000 0.000000
vt 0.000000 0.000000
vt 0.000000 0.000000
vt 0.000000 0.000000
vt 0.000000 0.000000
vt 0.000000 0.000000
vt 0.000000 0.000000
vt 0.000000 0.000000
vt 0.000000 0.000000
vt 0.000000 0.000000
vt 0.000000 0.000000
vt 0.000000 0.000000
vt 0.000000 0.000000
vt 0.000000 0.000000
vt 0.000000 0.000000
vt 0.000000 0.000000
vt 0.000000 0.000000
vt 0.000000 0.000000
vt 0.000000 0.000000
vt 0.000000 0.000000
vt 0.000000 0.000000
vn 0.0008 -1.0000 -0.0004
vn -0.0008 1.0000 0.0004
vn -0.8189 0.0000 0.5739
vn 0.4663 0.0000 -0.8846
vn 0.3418 0.0000 -0.9398
vn -0.9949 0.0000 0.1006
vn 0.7617 0.0000 -0.6480
vn 0.2152 0.0000 -0.9766
vn 0.9381 0.0000 0.3463
vn 0.9099 0.0000 -0.4148
vn -0.0038 0.0000 -1.0000
vn -0.9910 0.0000 -0.1338
vn -0.2463 0.0000 -0.9692
vn -0.9985 0.0000 -0.0550
vn 0.4526 0.0000 0.8917
vn -0.7682 0.0000 -0.6402
vn 0.0366 0.0000 0.9993
vn 0.8888 0.0000 0.4584
vn -0.6624 0.0000 0.7491
vn 0.1268 0.0000 0.9919
vn 0.9789 0.0000 -0.2046
vn -0.5605 0.0000 0.8281
vn 0.0743 0.0000 0.9972
usemtl chrome5
s off
f 5/1/1 6/2/1 7/3/1 8/4/1 9/5/1 1/6/1 10/7/1 11/8/1 12/9/1 13/10/1 14/11/1 15/12/1 16/13/1 17/14/1 18/15/1 19/16/1 20/17/1 21/18/1 2/19/1 3/20/1 4/21/1
usemtl chrome5_Untitled.001
f 26/22/2 25/23/2 24/24/2 23/25/2 42/26/2 41/27/2 40/28/2 39/29/2 38/30/2 37/31/2 36/32/2 35/33/2 34/34/2 33/35/2 32/36/2 31/37/2 22/38/2 30/39/2 29/40/2 28/41/2 27/42/2
usemtl chrome5_NONE
f 11/43/3 10/44/3 31/45/3 32/46/3
f 20/47/4 19/48/4 40/49/4 41/50/4
f 19/48/5 18/51/5 39/52/5 40/49/5
f 12/53/6 11/43/6 32/46/6 33/54/6
f 21/55/7 20/47/7 41/50/7 42/56/7
f 18/51/8 17/57/8 38/58/8 39/52/8
f 4/59/9 3/60/9 24/61/9 25/62/9
f 2/63/10 21/55/10 42/56/10 23/64/10
f 17/57/11 16/65/11 37/66/11 38/58/11
f 14/67/12 13/68/12 34/69/12 35/70/12
f 16/65/13 15/71/13 36/72/13 37/66/13
f 13/68/14 12/53/14 33/54/14 34/69/14
f 6/73/15 5/74/15 26/75/15 27/76/15
f 15/71/16 14/67/16 35/70/16 36/72/16
f 9/77/17 8/78/17 29/79/17 30/80/17
f 5/74/18 4/59/18 25/62/18 26/75/18
f 10/44/19 1/81/19 22/82/19 31/45/19
f 7/83/20 6/73/20 27/76/20 28/84/20
f 3/60/21 2/63/21 23/64/21 24/61/21
f 1/81/22 9/77/22 30/80/22 22/82/22
f 8/78/23 7/83/23 28/84/23 29/79/23
