# Blender v2.79 (sub 0) OBJ File: 'mirror.blend'
# www.blender.org
mtllib mirror.mtl
o door_lf_ok
v 1.347643 0.025379 -0.666582
v -1.725268 0.016566 0.396707
v -1.843857 0.016277 -0.170742
v -1.766543 0.021836 -0.380173
v -1.751773 0.021668 -0.408812
v -1.212100 0.011362 -0.682703
v -0.526087 0.016182 -0.770413
v 0.698724 0.014628 -0.861702
v 1.040859 0.013628 -0.874231
v 1.663437 0.016655 -0.387333
v 1.763801 0.018010 -0.244133
v 1.825007 0.018587 0.360908
v 1.821060 0.017733 0.432508
v 1.717823 0.018952 1.196867
v 1.450776 0.016977 1.517279
v 1.133816 0.015076 1.597828
v 0.657440 0.012538 1.599628
v -0.000703 0.015141 1.454628
v -0.635486 0.015320 1.223719
v -1.379233 0.016360 0.831688
v -1.697521 0.016670 0.457567
v 1.347643 -0.009778 -0.666582
v -1.725268 -0.018591 0.396707
v -1.843857 -0.018880 -0.170742
v -1.766543 -0.013321 -0.380173
v -1.751773 -0.013489 -0.408812
v -1.212100 -0.023795 -0.682703
v -0.526087 -0.018975 -0.770413
v 0.698724 -0.020529 -0.861702
v 1.040859 -0.021530 -0.874231
v 1.663437 -0.018502 -0.387333
v 1.763801 -0.017148 -0.244133
v 1.825007 -0.016570 0.360908
v 1.821060 -0.017424 0.432508
v 1.717823 -0.016205 1.196867
v 1.450776 -0.018180 1.517279
v 1.133816 -0.020081 1.597828
v 0.657440 -0.022620 1.599628
v -0.000703 -0.020016 1.454628
v -0.635486 -0.019837 1.223719
v -1.379233 -0.018797 0.831688
v -1.697521 -0.018487 0.457567
vt 0.000000 0.000000
vt 0.000000 0.000000
vt 0.000000 0.000000
vt 0.000000 0.000000
vt 0.000000 0.000000
vt 0.000000 0.000000
vt 0.000000 0.000000
vt 0.000000 0.000000
vt 0.000000 0.000000
vt 0.000000 0.000000
vt 0.000000 0.000000
vt 0.000000 0.000000
vt 0.000000 0.000000
vt 0.000000 0.000000
vt 0.000000 0.000000
vt 0.000000 0.000000
vt 0.000000 0.000000
vt 0.000000 0.000000
vt 0.000000 0.000000
vt 0.000000 0.000000
vt 0.000000 0.000000
vt 0.000000 0.000000
vt 0.000000 0.000000
vt 0.000000 0.000000
vt 0.000000 0.000000
vt 0.000000 0.000000
vt 0.000000 0.000000
vt 0.000000 0.000000
vt 0.000000 0.000000
vt 0.000000 0.000000
vt 0.000000 0.000000
vt 0.000000 0.000000
vt 0.000000 0.000000
vt 0.000000 0.000000
vt 0.000000 0.000000
vt 0.000000 0.000000
vt 0.000000 0.000000
vt 0.000000 0.000000
vt 0.000000 0.000000
vt 0.000000 0.000000
vt 0.000000 0.000000
vt 0.000000 0.000000
vn 0.0008 -1.0000 -0.0004
vn -0.0008 1.0000 0.0004
vn -0.8189 0.0000 0.5739
vn 0.4663 0.0000 -0.8846
vn 0.3418 0.0000 -0.9398
vn -0.9949 0.0000 0.1006
vn 0.7617 0.0000 -0.6480
vn 0.2152 0.0000 -0.9766
vn 0.9381 0.0000 0.3463
vn 0.9099 0.0000 -0.4148
vn -0.0038 0.0000 -1.0000
vn -0.9910 0.0000 -0.1338
vn -0.2463 0.0000 -0.9692
vn -0.9985 0.0000 -0.0550
vn 0.4526 0.0000 0.8917
vn -0.7682 0.0000 -0.6402
vn 0.0366 0.0000 0.9993
vn 0.8888 0.0000 0.4584
vn -0.6624 0.0000 0.7491
vn 0.1268 0.0000 0.9919
vn 0.9789 0.0000 -0.2046
vn -0.5605 0.0000 0.8281
vn 0.0743 0.0000 0.9972
usemtl chrome5
s off
f 5/1/1 6/2/1 7/3/1 8/4/1 9/5/1 1/6/1 10/7/1 11/8/1 12/9/1 13/10/1 14/11/1 15/12/1 16/13/1 17/14/1 18/15/1 19/16/1 20/17/1 21/18/1 2/19/1 3/20/1 4/21/1
f 26/22/2 25/23/2 24/24/2 23/25/2 42/26/2 41/27/2 40/28/2 39/29/2 38/30/2 37/31/2 36/32/2 35/33/2 34/34/2 33/35/2 32/36/2 31/37/2 22/38/2 30/39/2 29/40/2 28/41/2 27/42/2
f 11/8/3 10/7/3 31/37/3 32/36/3
f 20/17/4 19/16/4 40/28/4 41/27/4
f 19/16/5 18/15/5 39/29/5 40/28/5
f 12/9/6 11/8/6 32/36/6 33/35/6
f 21/18/7 20/17/7 41/27/7 42/26/7
f 18/15/8 17/14/8 38/30/8 39/29/8
f 4/21/9 3/20/9 24/24/9 25/23/9
f 2/19/10 21/18/10 42/26/10 23/25/10
f 17/14/11 16/13/11 37/31/11 38/30/11
f 14/11/12 13/10/12 34/34/12 35/33/12
f 16/13/13 15/12/13 36/32/13 37/31/13
f 13/10/14 12/9/14 33/35/14 34/34/14
f 6/2/15 5/1/15 26/22/15 27/42/15
f 15/12/16 14/11/16 35/33/16 36/32/16
f 9/5/17 8/4/17 29/40/17 30/39/17
f 5/1/18 4/21/18 25/23/18 26/22/18
f 10/7/19 1/6/19 22/38/19 31/37/19
f 7/3/20 6/2/20 27/42/20 28/41/20
f 3/20/21 2/19/21 23/25/21 24/24/21
f 1/6/22 9/5/22 30/39/22 22/38/22
f 8/4/23 7/3/23 28/41/23 29/40/23
