# Blender v2.79 (sub 0) OBJ File: 'VideoWall.blend'
# www.blender.org
mtllib videoWall.mtl
o Circle.003
v 0.000002 0.005217 -2.864179
v -0.953927 0.005217 -2.770225
v -1.871197 0.005217 -2.491975
v -2.716557 0.005217 -2.040120
v -3.457521 0.005217 -1.432027
v -4.065615 0.005217 -0.691062
v -4.517470 0.005217 0.154298
v -4.795721 0.005217 1.071568
v -4.889675 0.005217 2.025496
v -4.795721 0.005217 2.979424
v -4.517470 0.005217 3.896694
v -4.517470 3.006218 3.896694
v -4.795721 3.006218 2.979424
v -4.889675 3.006218 2.025496
v -4.795721 3.006218 1.071568
v -4.517470 3.006218 0.154298
v -4.065615 3.006218 -0.691062
v -3.457521 3.006218 -1.432027
v -2.716557 3.006218 -2.040120
v -1.871197 3.006218 -2.491975
v -0.953927 3.006218 -2.770225
v 0.000002 3.006218 -2.864179
v 4.517475 0.005217 3.896691
v 4.795724 0.005217 2.979421
v 4.889677 0.005217 2.025492
v 4.795722 0.005217 1.071563
v 4.517471 0.005217 0.154293
v 4.065615 0.005217 -0.691067
v 3.457520 0.005217 -1.432031
v 2.716555 0.005217 -2.040124
v 1.871193 0.005217 -2.491978
v 0.953923 0.005217 -2.770227
v 4.517475 3.006218 3.896691
v 4.795724 3.006218 2.979421
v 4.889677 3.006218 2.025492
v 4.795722 3.006218 1.071563
v 4.517471 3.006218 0.154293
v 4.065615 3.006218 -0.691067
v 3.457520 3.006218 -1.432031
v 2.716555 3.006218 -2.040124
v 1.871193 3.006218 -2.491978
v 0.953923 3.006218 -2.770227
v 0.000002 -0.019001 -2.933214
v -0.969323 -0.019001 -2.837743
v -1.901398 -0.019001 -2.555002
v -2.760402 -0.019001 -2.095855
v -3.513326 -0.019001 -1.477946
v -4.131234 -0.019001 -0.725022
v -4.590382 -0.019001 0.133982
v -4.873124 -0.019001 1.066056
v -4.968594 -0.019001 2.035381
v -4.873124 -0.019001 3.004705
v -4.590382 -0.019001 3.888922
v -4.590382 3.030436 3.888922
v -4.873124 3.030436 3.004705
v -4.968594 3.030436 2.035381
v -4.873124 3.030436 1.066056
v -4.590382 3.030436 0.133982
v -4.131234 3.030436 -0.725022
v -3.513326 3.030436 -1.477946
v -2.760402 3.030436 -2.095855
v -1.901398 3.030436 -2.555002
v -0.969323 3.030436 -2.837743
v 0.000002 3.030436 -2.933214
v 4.590386 -0.019001 3.888919
v 4.873127 -0.019001 3.004702
v 4.968596 -0.019001 2.035376
v 4.873126 -0.019001 1.066051
v 4.590383 -0.019001 0.133977
v 4.131234 -0.019001 -0.725027
v 3.513324 -0.019001 -1.477950
v 2.760400 -0.019001 -2.095858
v 1.901394 -0.019001 -2.555005
v 0.969319 -0.019001 -2.837745
v 4.590386 3.030436 3.888919
v 4.873127 3.030436 3.004702
v 4.968596 3.030436 2.035376
v 4.873126 3.030436 1.066051
v 4.590383 3.030436 0.133977
v 4.131234 3.030436 -0.725027
v 3.513324 3.030436 -1.477950
v 2.760400 3.030436 -2.095858
v 1.901394 3.030436 -2.555005
v 0.969319 3.030436 -2.837745
vn -0.3062 0.5974 -0.7411
vn -0.3062 -0.5974 -0.7411
vn -0.1562 -0.5964 -0.7873
vn -0.1562 0.5964 -0.7873
vn 0.0000 0.5960 -0.8030
vn 0.0000 -0.5960 -0.8030
vn 0.1562 -0.5964 -0.7873
vn 0.1562 0.5964 -0.7873
vn -0.6903 0.4725 -0.5478
vn -0.6903 -0.4725 -0.5478
vn -0.7767 -0.6106 0.1545
vn -0.7767 0.6106 0.1545
vn 0.7771 0.6097 -0.1562
vn 0.7771 -0.6097 -0.1562
vn 0.7903 -0.6127 -0.0015
vn 0.7903 0.6127 -0.0015
vn -0.4440 0.5991 -0.6663
vn -0.4440 -0.5991 -0.6663
vn 0.7338 0.6067 -0.3056
vn 0.7338 -0.6067 -0.3056
vn -0.5641 0.6013 -0.5659
vn -0.5641 -0.6013 -0.5659
vn 0.6619 0.6039 -0.4440
vn 0.6619 -0.6039 -0.4440
vn -0.6619 0.6039 -0.4440
vn -0.6619 -0.6039 -0.4440
vn 0.5641 0.6013 -0.5659
vn 0.5641 -0.6013 -0.5659
vn -0.7338 0.6067 -0.3056
vn -0.7338 -0.6067 -0.3056
vn 0.4440 0.5991 -0.6663
vn 0.4440 -0.5991 -0.6663
vn -0.7771 0.6097 -0.1562
vn -0.7771 -0.6097 -0.1562
vn 0.3062 0.5974 -0.7411
vn 0.3062 -0.5974 -0.7411
vn -0.7903 0.6127 -0.0015
vn -0.7903 -0.6127 -0.0015
vn 0.7767 0.6106 0.1545
vn 0.7767 -0.6106 0.1545
vn 0.6903 -0.4725 -0.5478
vn 0.6903 0.4725 -0.5478
vn 0.2333 0.7911 0.5654
vn 0.1187 0.7919 0.5990
vn 0.1187 -0.7919 0.5990
vn 0.2333 -0.7911 0.5654
vn 0.0000 0.7921 0.6103
vn -0.1187 0.7919 0.5990
vn -0.1187 -0.7919 0.5990
vn 0.0000 -0.7921 0.6103
vn 0.3971 0.7077 -0.5844
vn 0.6123 0.7807 -0.1249
vn 0.6123 -0.7807 -0.1249
vn 0.3971 -0.7077 -0.5844
vn -0.6102 0.7826 0.1231
vn -0.6251 0.7805 0.0016
vn -0.6251 -0.7805 0.0016
vn -0.6102 -0.7826 0.1231
vn 0.3397 0.7900 0.5104
vn 0.3397 -0.7900 0.5104
vn -0.5721 0.7846 0.2388
vn -0.5721 -0.7846 0.2388
vn 0.4339 0.7884 0.4359
vn 0.4339 -0.7884 0.4359
vn -0.5125 0.7866 0.3443
vn -0.5125 -0.7866 0.3443
vn 0.5125 0.7866 0.3443
vn 0.5125 -0.7866 0.3443
vn -0.4339 0.7884 0.4359
vn -0.4339 -0.7884 0.4359
vn 0.5721 0.7846 0.2388
vn 0.5721 -0.7846 0.2388
vn -0.3397 0.7900 0.5104
vn -0.3397 -0.7900 0.5104
vn 0.6102 0.7826 0.1231
vn 0.6102 -0.7826 0.1231
vn -0.2333 0.7911 0.5654
vn -0.2333 -0.7911 0.5654
vn 0.6251 0.7805 0.0016
vn 0.6251 -0.7805 0.0016
vn -0.6123 0.7807 -0.1249
vn -0.3971 0.7077 -0.5844
vn -0.3971 -0.7077 -0.5844
vn -0.6123 -0.7807 -0.1249
usemtl Material
s 1
f 3//1 20//2 21//3 2//4
f 1//5 22//6 42//7 32//8
f 11//9 12//10 13//11 10//12
f 26//13 36//14 35//15 25//16
f 4//17 19//18 20//2 3//1
f 27//19 37//20 36//14 26//13
f 5//21 18//22 19//18 4//17
f 28//23 38//24 37//20 27//19
f 6//25 17//26 18//22 5//21
f 29//27 39//28 38//24 28//23
f 7//29 16//30 17//26 6//25
f 30//31 40//32 39//28 29//27
f 8//33 15//34 16//30 7//29
f 31//35 41//36 40//32 30//31
f 9//37 14//38 15//34 8//33
f 24//39 34//40 33//41 23//42
f 2//4 21//3 22//6 1//5
f 32//8 42//7 41//36 31//35
f 10//12 13//11 14//38 9//37
f 25//16 35//15 34//40 24//39
f 45//43 44//44 63//45 62//46
f 43//47 74//48 84//49 64//50
f 53//51 52//52 55//53 54//54
f 68//55 67//56 77//57 78//58
f 46//59 45//43 62//46 61//60
f 69//61 68//55 78//58 79//62
f 47//63 46//59 61//60 60//64
f 70//65 69//61 79//62 80//66
f 48//67 47//63 60//64 59//68
f 71//69 70//65 80//66 81//70
f 49//71 48//67 59//68 58//72
f 72//73 71//69 81//70 82//74
f 50//75 49//71 58//72 57//76
f 73//77 72//73 82//74 83//78
f 51//79 50//75 57//76 56//80
f 66//81 65//82 75//83 76//84
f 44//44 43//47 64//50 63//45
f 74//48 73//77 83//78 84//49
f 52//52 51//79 56//80 55//53
f 67//56 66//81 76//84 77//57
f 28//23 27//19 69//61 70//65
f 14//38 13//11 55//53 56//80
f 2//4 1//5 43//47 44//44
f 29//27 28//23 70//65 71//69
f 15//34 14//38 56//80 57//76
f 3//1 2//4 44//44 45//43
f 30//31 29//27 71//69 72//73
f 16//30 15//34 57//76 58//72
f 4//17 3//1 45//43 46//59
f 31//35 30//31 72//73 73//77
f 17//26 16//30 58//72 59//68
f 5//21 4//17 46//59 47//63
f 32//8 31//35 73//77 74//48
f 18//22 17//26 59//68 60//64
f 6//25 5//21 47//63 48//67
f 1//5 32//8 74//48 43//47
f 19//18 18//22 60//64 61//60
f 12//10 11//9 53//51 54//54
f 7//29 6//25 48//67 49//71
f 35//15 36//14 78//58 77//57
f 23//42 33//41 75//83 65//82
f 20//2 19//18 61//60 62//46
f 8//33 7//29 49//71 50//75
f 36//14 37//20 79//62 78//58
f 21//3 20//2 62//46 63//45
f 9//37 8//33 50//75 51//79
f 37//20 38//24 80//66 79//62
f 22//6 21//3 63//45 64//50
f 10//12 9//37 51//79 52//52
f 38//24 39//28 81//70 80//66
f 24//39 23//42 65//82 66//81
f 11//9 10//12 52//52 53//51
f 39//28 40//32 82//74 81//70
f 25//16 24//39 66//81 67//56
f 34//40 35//15 77//57 76//84
f 40//32 41//36 83//78 82//74
f 26//13 25//16 67//56 68//55
f 33//41 34//40 76//84 75//83
f 41//36 42//7 84//49 83//78
f 27//19 26//13 68//55 69//61
f 13//11 12//10 54//54 55//53
f 42//7 22//6 64//50 84//49
